<svg width="32" height="32" viewBox="0 0 32 32" fill="none" xmlns="http://www.w3.org/2000/svg">
<path d="M15.9997 3.3335C12.6403 3.3335 9.41845 4.66802 7.04299 7.04348C4.66753 9.41894 3.33301 12.6408 3.33301 16.0002C3.33301 19.3596 4.66753 22.5814 7.04299 24.9568C9.41845 27.3323 12.6403 28.6668 15.9997 28.6668C19.3591 28.6668 22.5809 27.3323 24.9564 24.9568C27.3318 22.5814 28.6663 19.3596 28.6663 16.0002C28.6663 12.6408 27.3318 9.41894 24.9564 7.04348C22.5809 4.66802 19.3591 3.3335 15.9997 3.3335Z" fill="#039BE5"/>
<path d="M17.715 19.3575H20.993L21.5077 16.0275H17.7143V14.2075C17.7143 12.8242 18.1663 11.5975 19.4603 11.5975H21.5397V8.69151C21.1743 8.64218 20.4017 8.53418 18.9417 8.53418C15.893 8.53418 14.1057 10.1442 14.1057 13.8122V16.0275H10.9717V19.3575H14.1057V28.5102C14.7263 28.6035 15.355 28.6668 16.0003 28.6668C16.5837 28.6668 17.153 28.6135 17.715 28.5375V19.3575Z" fill="white"/>
</svg>
